<svg width="15" height="17" viewBox="0 0 15 17" fill="none" xmlns="http://www.w3.org/2000/svg">
<g clip-path="url(#clip0)">
<path d="M-0.015761 16.7382C-0.253103 16.7382 -0.395508 16.523 -0.395508 16.3078V0.16855C-0.348039 -0.0466395 -0.205634 -0.261829 -0.015761 -0.261829H14.1773C14.4146 -0.261829 14.557 -0.0466395 14.557 0.16855V16.254C14.557 16.523 14.3672 16.6844 14.1773 16.6844H-0.015761V16.7382ZM0.411454 15.8236H13.845V0.59893H9.24057V5.76349C9.24057 5.97868 9.05069 6.19387 8.86082 6.19387C8.81335 6.19387 8.71842 6.19387 8.67095 6.14007L7.15196 5.22551L5.68044 6.14007C5.53804 6.19387 5.49057 6.19387 5.4431 6.19387C5.34816 6.19387 5.25323 6.14007 5.15829 6.08627C5.11082 6.03247 5.01588 5.92488 5.01588 5.76349V0.59893H0.411454V15.8236ZM7.10449 4.36475C7.15196 4.36475 7.2469 4.36475 7.29437 4.41855L8.43361 5.11792V0.59893H5.77538V5.06412L6.91462 4.36475C7.00955 4.36475 7.05702 4.36475 7.10449 4.36475ZM2.12031 13.7255C1.88297 13.7255 1.74057 13.5103 1.74057 13.2951C1.74057 13.0799 1.93044 12.8648 2.12031 12.8648H6.20259C6.43993 12.8648 6.58234 13.0799 6.58234 13.2951C6.58234 13.5103 6.43993 13.7255 6.20259 13.7255H2.12031ZM2.12031 11.7888C1.88297 11.7888 1.74057 11.5736 1.74057 11.3584C1.74057 11.1432 1.93044 10.928 2.12031 10.928H5.34816C5.5855 10.928 5.72791 11.1432 5.72791 11.3584C5.72791 11.5736 5.53804 11.7888 5.34816 11.7888H2.12031Z" fill="#227CE4"/>
</g>
<defs>
<clipPath id="clip0">
<rect width="15" height="17" fill="white"/>
</clipPath>
</defs>
</svg>
