<svg width="23" height="16" viewBox="0 0 23 16" fill="none" xmlns="http://www.w3.org/2000/svg">
<g clip-path="url(#clip0)">
<path d="M7.51 16C7.37 16 7.3 15.9273 7.23 15.8545C7.16 15.7818 7.16 15.6364 7.16 15.4909L8.98 10.3273H4.01C2.33 10.3273 1 8.87273 1 7.05454V1.81818C1 1.30909 1.35 0.945454 1.84 0.945454C2.75 0.945454 3.59 1.6 3.87 2.54545L4.64 5.30909C4.71 5.52727 4.92 5.67273 5.13 5.67273H8.98L7.16 0.509091C7.09 0.363636 7.16 0.218182 7.23 0.145455C7.3 0.0727273 7.44 0 7.51 0H9.19C9.96 0 10.59 0.436364 11.01 1.09091L13.67 5.67273H17.59C19.34 5.67273 20.95 6.61818 21.86 8.21818C22 8.43636 22.07 8.65454 22.07 8.94545C22.07 9.67273 21.51 10.3273 20.81 10.3273H13.81L11.08 14.9818C10.66 15.6364 10.03 16.0727 9.26 16.0727H7.51V16ZM10.17 7.63636C10.24 7.63636 10.24 7.63636 10.31 7.63636C10.38 7.70909 10.45 7.78182 10.52 7.85455C10.59 7.92727 10.59 8.07273 10.52 8.14545L8.07 15.2H9.19C9.68 15.2 10.1 14.9091 10.38 14.4727L14.3 7.78182C14.37 7.63636 14.51 7.56364 14.58 7.56364C14.65 7.56364 14.72 7.56364 14.79 7.63636C14.86 7.70909 14.93 7.78182 14.93 7.85455C14.93 7.92727 14.93 8.07273 14.86 8.14545L14.09 9.45455H20.67C21.02 9.45455 21.16 9.16364 21.16 8.87273C21.16 8.8 21.16 8.65454 21.09 8.58182C20.32 7.2 18.92 6.4 17.45 6.4H5.13C4.57 6.4 4.08 6.03636 3.94 5.45455L3.17 2.76364C2.96 2.18182 2.47 1.74545 1.84 1.74545H1.77V1.81818V7.05454C1.77 8.43636 2.82 9.52727 4.01 9.52727H9.26L9.82 7.85455C9.89 7.70909 10.03 7.63636 10.17 7.63636ZM9.75 5.67273H12.76L10.31 1.45455C10.03 1.01818 9.61 0.727273 9.12 0.727273H8L9.75 5.67273Z" fill="#9FCCFF"/>
</g>
<defs>
<clipPath id="clip0">
<rect width="23" height="16" fill="white"/>
</clipPath>
</defs>
</svg>
