<svg width="67" height="361" viewBox="0 0 67 361" fill="none" xmlns="http://www.w3.org/2000/svg">
<path opacity="0.32" d="M64.6707 359.497C54.6755 359.264 39.8126 355.861 26.9402 348.614C13.1821 340.868 1.79495 328.792 0.935212 311.597L0.934797 311.589L0.934108 311.581C0.50047 306.377 0.5 300.3 0.5 293.322C1.37168 251.071 9.21267 180.096 18.7817 147.028C22.2765 136.978 26.202 122.144 29.6891 106.016C33.6146 88.7874 36.9982 69.691 38.0355 51.8935C39.0564 34.3758 37.8088 18.0538 32.5158 6.0063L37.1673 4.84342L37.3155 4.80638L37.4177 4.69284L41.0289 0.680368L44.4646 3.35258L47.4675 12.3615L47.5373 12.5707L47.7388 12.6603L51.131 14.1679L48.3917 18.4725L48.2764 18.6537L48.3285 18.8622L51.3775 31.0582L53.555 41.0747L53.6475 41.5005L54.0819 41.467L59.1579 41.0766L58.3638 49.8124L50.7499 54.0423L50.5358 54.1613L50.4986 54.4034L49.6269 60.0692L49.6197 60.1156L49.6214 60.1625L50.0527 72.6707L44.1323 84.0885L40.9065 84.4917L40.446 84.5493L40.4691 85.0129L41.3285 102.199L35.8514 106.834L35.6668 106.99L35.6746 107.232L36.1104 120.743L36.1146 120.872L36.1814 120.984L40.0226 127.386C40.0155 127.481 40.0048 127.619 39.9901 127.795C39.9597 128.161 39.9124 128.69 39.8447 129.344C39.7092 130.651 39.4925 132.452 39.1676 134.429C38.5136 138.407 37.4348 143.003 35.7485 145.743C34.9205 147.088 34.067 148.286 33.2504 149.431L33.1521 149.569C32.3098 150.751 31.5052 151.888 30.8371 153.057C29.4899 155.414 28.6904 157.917 29.139 161.309C29.2505 162.966 29.5259 164.752 29.8248 166.525C29.894 166.935 29.9644 167.345 30.0344 167.752C30.2693 169.118 30.4998 170.459 30.6665 171.73C30.883 173.381 30.9855 174.873 30.8557 176.1C30.7253 177.332 30.3692 178.216 29.7472 178.749C29.481 178.977 29.261 179.316 29.0721 179.701C28.8794 180.093 28.7 180.573 28.5317 181.117C28.195 182.207 27.8894 183.603 27.6121 185.185C27.0569 188.351 26.606 192.317 26.2515 196.189C25.8967 200.064 25.6376 203.856 25.4672 206.678C25.3819 208.09 25.3189 209.259 25.2771 210.076C25.2562 210.484 25.2406 210.805 25.2303 211.023L25.2295 211.04L20.292 213.098L19.8493 213.282L20.0151 213.732L23.0659 222.013L23.1153 222.147L23.2281 222.235L26.8974 225.089L25.2276 232.186L25.1587 232.478L25.385 232.676L28.581 235.473L26.5746 239.486L26.4891 239.657L26.5394 239.841L27.8173 244.527L64.6707 359.497ZM64.6707 359.497C60.1291 357.151 54.489 354.774 49.2138 354.397L48.7692 354.365L48.7499 353.92L47.4424 323.847L47.4419 323.837V323.826V322.918C47.3619 322.9 47.2704 322.879 47.168 322.856C46.7424 322.761 46.1288 322.625 45.3774 322.462C43.8744 322.135 41.8211 321.7 39.6186 321.265C35.1898 320.39 30.2311 319.531 27.8935 319.531C25.3016 319.531 23.6425 318.226 22.6492 316.94C22.1551 316.301 21.8225 315.664 21.6132 315.187C21.5083 314.949 21.4336 314.748 21.3845 314.606C21.36 314.535 21.3418 314.478 21.3295 314.437C21.3233 314.417 21.3186 314.401 21.3153 314.39L21.3113 314.376L21.3101 314.371L21.3097 314.37L21.3095 314.369C21.3095 314.369 21.3094 314.369 21.7918 314.237L21.3094 314.369L21.2991 314.331L21.2948 314.292L20.0363 302.966C19.9765 302.965 19.9116 302.964 19.8422 302.963C19.4506 302.956 18.9142 302.942 18.3358 302.915C17.7583 302.887 17.1339 302.846 16.5678 302.783C16.0116 302.721 15.4765 302.635 15.0961 302.508L14.9841 302.471L14.9007 302.387C14.7503 302.237 14.675 302.027 14.6299 301.871C14.5787 301.693 14.539 301.479 14.5069 301.243C14.4422 300.77 14.4007 300.151 14.3733 299.438C14.3184 298.012 14.3184 296.152 14.3184 294.198V294.189V294.164L14.3209 294.139C14.3478 293.87 14.3748 293.597 14.402 293.321C14.5941 291.376 14.7986 289.305 15.0879 287.569C15.253 286.578 15.449 285.676 15.6934 284.957C15.8157 284.597 15.9545 284.271 16.1152 283.997C16.2708 283.732 16.4627 283.489 16.7057 283.323C16.8288 283.227 16.9808 283.032 17.1489 282.69C17.3165 282.348 17.4793 281.904 17.6426 281.364C17.9559 280.328 18.2523 279.005 18.5895 277.5L18.6344 277.3C19.3409 274.148 20.2225 270.281 21.7745 266.956C23.2914 263.705 24.2651 261.108 24.8586 259.327C25.1553 258.437 25.3571 257.751 25.4842 257.289C25.5478 257.059 25.5926 256.884 25.6214 256.768C25.6358 256.71 25.6462 256.667 25.6529 256.638L25.6599 256.608L25.6601 256.607L25.6617 256.6L25.662 256.599L64.6707 359.497Z" stroke="white"/>
</svg>
