<svg width="289" height="358" viewBox="0 0 289 358" fill="none" xmlns="http://www.w3.org/2000/svg">
<path opacity="0.32" d="M276.924 44.6848C279.816 45.1669 283.575 45.6504 287.434 45.7506C278.178 53.0111 269.969 60.203 264.004 65.6487C260.902 68.4813 258.406 70.842 256.686 72.495C255.826 73.3215 255.159 73.9711 254.707 74.4144C254.481 74.636 254.309 74.806 254.194 74.9208L254.062 75.051L254.029 75.0842L254.021 75.0926L254.018 75.0948L254.018 75.0953C254.018 75.0955 254.018 75.0955 254.371 75.4491L254.018 75.0955L253.874 75.2388L253.871 75.4414L251.716 215.561L251.712 215.773L251.862 215.922L275.23 239.29C253.809 261.806 235.588 283.259 222.433 302.321C209.222 321.463 201.07 338.262 199.981 351.336L199.979 351.356V351.377V351.39V351.402V351.415V351.428V351.44V351.453V351.466V351.478V351.491V351.504V351.516V351.529V351.541V351.554V351.567V351.579V351.592V351.605V351.617V351.63V351.642V351.655V351.668V351.68V351.693V351.706V351.718V351.731V351.743V351.756V351.769V351.781V351.794V351.807V351.819V351.832V351.845V351.857V351.87V351.882V351.895V351.908V351.92V351.933V351.946V351.958V351.971V351.983V351.996V352.009V352.021V352.034V352.047V352.059V352.072V352.085V352.097V352.11V352.122V352.135V352.148V352.16V352.173V352.186V352.198V352.211V352.223V352.236V352.249V352.261V352.274V352.287V352.299V352.312V352.325V352.337V352.35V352.362V352.375V352.388V352.4V352.413V352.426V352.438V352.451V352.463V352.476V352.489V352.501V352.514V352.527V352.539V352.552V352.565V352.577V352.59V352.602V352.615V352.628V352.64V352.653V352.666V352.678V352.691V352.703V352.716V352.729V352.741V352.754V352.767V352.779V352.792V352.805V352.817V352.83V352.842V352.855V352.868V352.88V352.893V352.906V352.918V352.931V352.943V352.956V352.969V352.981V352.994V353.007V353.019V353.032V353.044V353.057V353.07V353.082V353.095V353.108V353.12V353.133V353.146V353.158V353.171V353.183V353.196V353.209V353.221V353.234V353.247V353.259V353.272V353.284V353.297V353.31V353.322V353.335V353.348V353.36V353.373V353.386V353.398V353.411V353.423V353.436V353.449V353.461V353.474V353.487V353.499V353.512V353.524V353.537V353.55V353.562V353.575V353.588V353.6V353.613V353.626V353.638V353.651V353.663V353.676V353.689V353.701V353.714V353.727V353.739V353.752V353.764V353.777V353.79V353.802V353.815V353.828V353.84V353.853V353.866V353.878V353.891V353.903V353.916V353.929V353.941V353.954V353.967V353.979V353.992V354.004V354.017V354.03V354.042V354.055V354.068V354.08V354.093V354.105V354.118V354.131V354.143V354.156V354.169V354.181V354.194V354.207V354.219V354.232V354.244V354.257V354.27V354.282V354.295V354.308V354.32V354.333V354.345V354.358V354.371V354.383V354.396V354.409V354.421V354.434V354.447V354.459V354.472V354.484V354.497V354.51V354.522V354.535V354.548V354.56V354.573V354.585V354.598V354.611V354.623V354.636V354.649V354.661V354.674V354.687V354.699V354.712V354.724V354.737V354.75V354.762V354.775V354.788V354.8V354.813V354.825V354.838V354.851V354.863V354.876V354.889V354.901V354.914V354.927V354.939V354.952V354.964V354.977V354.99V355.002V355.015V355.028V355.04V355.053V355.065V355.078V355.091V355.103V355.116V355.129V355.141V355.154V355.167V355.179V355.192V355.204V355.217V355.23V355.242V355.255V355.268V355.28V355.293V355.305V355.318V355.331V355.343V355.356V355.369V355.381V355.394V355.406V355.419V355.432V355.444V355.457V355.47V355.482V355.495V355.508V355.52V355.533V355.545V355.558V355.571V355.583V355.596V355.609V355.621V355.634V355.646V355.659V355.672V355.684V355.697V355.71V355.722V355.735V355.748V355.76V355.773V355.785V355.798V355.811V355.823V355.836V355.849V355.861V355.874V355.886V355.899V355.912V355.924V355.937V355.95V355.962V355.975V355.988V356V356.013V356.025V356.038V356.051V356.063V356.076V356.089V356.101V356.114V356.126V356.139V356.152V356.164V356.177V356.19V356.202V356.215V356.228V356.24V356.253V356.265V356.278V356.291V356.303V356.316V356.329V356.341V356.354V356.366V356.379V356.392V356.404V356.417V356.43V356.442V356.455V356.467V356.48V356.493V356.505V356.518V356.531V356.543V356.556V356.569V356.581V356.594V356.606V356.619V356.632V356.644V356.657V356.67V356.682V356.695V356.707V356.72V356.733V356.745V356.758V356.771V356.783V356.796V356.809V356.821V356.834V356.846V356.859V356.872V356.884L136.308 312.315V295.329V295.035L136.051 294.892L0.5 219.586V181.225L43.5339 114.523L43.6725 114.308L43.5796 114.07L9.2073 25.9908L34.6746 0.52348L53.5666 2.62259L59.9121 15.3134L60.0503 15.5898H60.3593H73.2697L118.318 19.8801L148.366 54.2215L148.516 54.3922H148.743H202.635H202.766L202.881 54.3275L252.15 26.4794L271.285 43.4875L271.376 43.5691L271.495 43.5988L271.617 43.1138C271.495 43.5988 271.496 43.5989 271.496 43.5989L271.496 43.599L271.498 43.5993L271.503 43.6006L271.522 43.6055L271.598 43.624C271.627 43.6309 271.662 43.6393 271.702 43.6489C271.755 43.6616 271.818 43.6764 271.891 43.6933C272.146 43.7529 272.519 43.8378 272.994 43.9395C273.943 44.1429 275.298 44.4139 276.924 44.6848Z" stroke="white"/>
</svg>
