<svg width="16" height="20" viewBox="0 0 16 20" fill="none" xmlns="http://www.w3.org/2000/svg">
<g opacity="0.36" clip-path="url(#clip0)">
<path d="M7.32057 1.05258C3.5311 1.22483 0.430622 4.15306 0 7.85641C0 8.63153 0 9.32052 0.172249 10.0095C0.172249 10.0095 0.172249 10.0956 0.258373 10.2679C0.344498 10.7846 0.516746 11.3014 0.77512 11.732C1.55024 13.5406 3.27273 16.555 7.23445 19.8277C7.49282 19.9999 7.83732 19.9999 8.09569 19.8277C12.0574 16.555 13.7799 13.5406 14.555 11.732C14.8134 11.2153 14.9856 10.7846 15.0718 10.2679C15.0718 10.0956 15.1579 10.0095 15.1579 10.0095C15.244 9.57889 15.3301 9.06215 15.3301 8.5454C15.1579 4.3253 11.6268 0.880329 7.32057 1.05258ZM7.57895 12.3349C5.51196 12.3349 3.8756 10.6985 3.8756 8.63153C3.8756 6.56454 5.51196 4.92818 7.57895 4.92818C9.64593 4.92818 11.1962 6.65066 11.1962 8.71765C11.1962 10.7846 9.55981 12.3349 7.57895 12.3349Z" fill="#BCC9DA"/>
</g>
<defs>
<clipPath id="clip0">
<rect width="15.7895" height="20" fill="white"/>
</clipPath>
</defs>
</svg>
