<svg width="68" height="90" viewBox="0 0 68 90" fill="none" xmlns="http://www.w3.org/2000/svg">
<g clip-path="url(#clip0)" filter="url(#filter0_d)">
<path opacity="0.08" d="M48.5656 62.0513L37.9352 60.1467V60.2469C37.4242 61.3496 36.2998 62.0513 35.1754 62.0513C34.0511 62.0513 32.8245 61.3496 32.4156 60.3472V60.2469L21.7853 62.0513C21.4787 62.0513 21.2743 62.0513 21.172 61.8508C21.0698 61.7506 20.9676 61.3496 20.9676 61.1491V56.9389C20.9676 56.7384 21.0698 56.2372 21.2743 56.1369L30.678 50.2225L29.5536 44.8093V44.709V35.687L7.27085 44.4083C7.16863 44.4083 7.06642 44.4083 7.06642 44.4083C6.9642 44.4083 6.75977 44.4083 6.55534 44.3081C6.2487 44.0073 6.14648 43.8068 6.14648 43.5061V37.291C6.14648 37.0905 6.2487 36.5892 6.65756 36.489L10.0306 34.3839V31.978C10.0306 30.3741 11.2572 28.9707 12.7904 28.9707C14.017 28.9707 15.1414 29.7726 15.448 31.0758V31.176L18.7189 29.2714V26.7653C18.7189 25.1614 19.9455 23.7579 21.4787 23.7579C22.7053 23.7579 23.8296 24.6601 24.1363 25.9633V26.0636L29.3492 23.0562V12.0293C29.3492 8.72127 30.1669 5.4132 31.5979 2.30562C32.109 0.9022 33.54 0 35.1754 0C35.4821 0 35.9932 0 36.1976 0.100244C37.4242 0.601467 38.4463 1.50367 38.8552 2.60636C40.0817 5.51345 40.7973 8.72127 40.7973 11.9291V23.1565L46.0102 26.1638V26.0636C46.3168 24.7604 47.4412 23.8582 48.6678 23.8582C50.201 23.8582 51.4276 25.2616 51.4276 26.8655V29.3716L54.6984 31.2763V31.176C55.0051 29.8729 56.1294 29.0709 57.356 29.0709C58.1737 29.0709 58.787 29.2714 59.2981 29.8729C59.8092 30.4743 60.1158 31.2763 60.1158 32.0782V34.4841L63.4889 36.5892C63.6933 36.6895 64 37.0905 64 37.3912V43.6063C64 43.8068 63.8978 44.2078 63.6933 44.3081C63.5911 44.4083 63.4889 44.4083 63.1823 44.4083C63.08 44.4083 62.9778 44.4083 62.9778 44.4083L40.7973 35.687V44.709V44.8093L39.7751 50.423L49.1789 56.3374C49.3833 56.4376 49.4855 56.8386 49.4855 57.1394V61.3496C49.4855 61.5501 49.3833 61.9511 49.2811 62.0513C49.0766 61.9511 48.9744 62.0513 48.5656 62.0513Z" fill="#BCC9DA"/>
<path d="M42.3305 81.7995L32.4157 80.1956V80.3961C32.0068 81.198 31.0869 81.7995 30.0647 81.7995C29.0426 81.7995 28.0204 81.198 27.7138 80.3961V80.1956H27.5094L17.9012 81.7995C17.6968 81.7995 17.5945 81.7995 17.5945 81.7995C17.5945 81.7995 17.4923 81.4988 17.4923 81.2983V77.5892C17.4923 77.3888 17.5945 77.088 17.6968 77.088L26.2828 71.6748L25.2606 66.6626V58.1418L4.81772 65.9609H4.7155C4.51107 65.9609 4.51107 65.9609 4.40886 65.9609C4.10221 65.7604 4 65.5599 4 65.4597V59.9462C4 59.7457 4.10221 59.445 4.20443 59.445L7.4753 57.5403V55.1345C7.4753 53.7311 8.59966 52.6284 9.82623 52.6284C10.8484 52.6284 11.6661 53.2298 12.075 54.3325V54.6333L15.448 52.8289V50.423C15.448 49.0196 16.5724 47.9169 17.799 47.9169C18.8211 47.9169 19.7411 48.6186 20.0477 49.7213V50.022L20.3543 49.9218L25.1584 47.1149V37.291C25.1584 34.4841 25.7717 31.577 27.1005 28.6699C27.816 27.467 29.0426 26.665 30.2692 26.665C30.5758 26.665 30.7802 26.665 31.1891 26.7653C32.2112 27.1663 33.029 27.868 33.54 28.9707C34.7666 31.7775 35.3799 34.5844 35.3799 37.1907V47.2152L40.4906 50.1223V49.621C40.7973 48.6186 41.7172 47.9169 42.7394 47.9169C43.9659 47.9169 45.0903 49.1198 45.0903 50.423V52.8289L48.4634 54.6333V54.3325C48.77 53.2298 49.5877 52.6284 50.7121 52.6284C51.3254 52.6284 51.8365 52.8289 52.4497 53.3301C52.8586 53.8313 53.063 54.4328 53.063 55.0342V57.3399L56.3339 59.2445C56.4361 59.3447 56.5383 59.5452 56.5383 59.7457V65.2592C56.5383 65.4597 56.4361 65.6601 56.3339 65.6601C56.2317 65.7604 56.2317 65.7604 56.0273 65.7604H55.8228L35.3799 57.9413V66.4621L34.1533 71.5746L42.7394 76.9878C42.8416 77.088 42.9438 77.2885 42.9438 77.489V81.198C42.9438 81.3985 42.8416 81.599 42.8416 81.6993C42.7393 81.7995 42.6371 81.8998 42.5349 81.8998L42.3305 81.7995ZM30.0647 28.0685C29.247 28.0685 28.5315 28.4694 28.0204 29.3716C26.8961 31.7775 26.385 34.3839 26.385 37.3912V66.2616L28.7359 79.1932C28.8382 80.0954 29.3492 80.5966 30.167 80.5966C30.9847 80.5966 31.4957 80.0954 31.598 79.1932L34.0511 66.2616V37.3912C34.0511 34.4841 33.54 31.978 32.4157 29.6724C32.109 28.9707 31.4957 28.3692 30.8825 28.1687C30.3714 28.0685 30.167 28.0685 30.0647 28.0685ZM18.3101 77.89V80.4963L27.3049 78.8924L26.1806 72.8778L18.3101 77.89ZM32.7223 78.6919L41.7172 80.3961V77.5892L33.8467 72.6773L32.7223 78.6919ZM5.02215 60.3472V64.5575L25.0562 56.6381V48.7188L5.02215 60.3472ZM34.8688 56.8386L54.9029 64.5575V60.2469L34.8688 49.0196V56.8386ZM9.82623 54.0318C9.21295 54.0318 8.59966 54.6333 8.59966 55.335V56.9389L10.9506 55.6357V55.4352V54.934C10.9506 54.4328 10.3373 54.0318 9.82623 54.0318ZM50.201 53.8313C49.5877 53.8313 49.1789 54.132 49.0767 54.7335V55.5355L51.4276 57.0391V55.1345C51.4276 54.4328 50.9165 53.8313 50.201 53.8313ZM17.6968 49.4205C17.0835 49.4205 16.4702 50.022 16.4702 50.7237V52.4279L18.8211 51.1247V50.824C18.9233 50.423 18.8211 50.1223 18.5145 49.8215C18.3101 49.5208 18.0034 49.4205 17.6968 49.4205ZM42.2283 49.5208C41.615 49.5208 41.0017 50.1223 41.0017 50.824V51.1247L43.4549 52.4279V50.824C43.4549 50.1223 42.9438 49.5208 42.2283 49.5208Z" fill="#F3F3F3"/>
<path d="M30.9841 41.8018H29.3486V61.9509H30.9841V41.8018Z" fill="#9FCCFF"/>
<path d="M32.2113 33.6824C31.9047 32.7802 31.087 32.279 30.2692 32.1787C29.3493 32.1787 28.6338 32.7802 28.3272 33.6824L27.7139 35.587L29.3493 36.1885L29.8604 34.2838C29.8604 34.1836 30.0648 34.0834 30.167 34.0834C30.2692 34.0834 30.3714 34.1836 30.4737 34.2838L30.9847 36.1885L32.6202 35.587L32.2113 33.6824Z" fill="#9FCCFF"/>
</g>
<defs>
<filter id="filter0_d" x="0" y="0" width="68" height="90" filterUnits="userSpaceOnUse" color-interpolation-filters="sRGB">
<feFlood flood-opacity="0" result="BackgroundImageFix"/>
<feColorMatrix in="SourceAlpha" type="matrix" values="0 0 0 0 0 0 0 0 0 0 0 0 0 0 0 0 0 0 127 0" result="hardAlpha"/>
<feOffset dy="4"/>
<feGaussianBlur stdDeviation="2"/>
<feComposite in2="hardAlpha" operator="out"/>
<feColorMatrix type="matrix" values="0 0 0 0 0 0 0 0 0 0 0 0 0 0 0 0 0 0 0.25 0"/>
<feBlend mode="normal" in2="BackgroundImageFix" result="effect1_dropShadow"/>
<feBlend mode="normal" in="SourceGraphic" in2="effect1_dropShadow" result="shape"/>
</filter>
<clipPath id="clip0">
<rect width="60" height="82" fill="white" transform="translate(4)"/>
</clipPath>
</defs>
</svg>
